<svg xmlns="http://www.w3.org/2000/svg" xmlns:cc="http://web.resource.org/cc/" xmlns:xlink="http://www.w3.org/1999/xlink" id="svg4845" width="266.667" height="266.667"><metadata/><defs id="defs3"><linearGradient id="linearGradient1709"><stop id="stop1710" offset="0" stop-color="#ffcd00" stop-opacity="1"/><stop id="stop1711" offset="1" stop-color="red" stop-opacity="1"/></linearGradient><linearGradient id="linearGradient4728"><stop id="stop4729" offset="0" stop-color="#eefb11" stop-opacity="1"/><stop id="stop4730" offset="1" stop-color="#fbcd11" stop-opacity="1"/></linearGradient><linearGradient id="linearGradient4844" x1="33.831" x2="33.831" y1="32.141" y2="47.053" gradientTransform="scale(1.395076,0.716807)" gradientUnits="userSpaceOnUse" xlink:href="#linearGradient4140"/><linearGradient id="linearGradient4140"><stop id="stop4141" offset="0" stop-color="#fff" stop-opacity="1"/><stop id="stop4142" offset="1" stop-color="#fffcfc" stop-opacity="0"/></linearGradient><linearGradient id="linearGradient4843" x1="33.714" x2="33.771" y1="32.828" y2="45.819" gradientTransform="scale(1.395076,0.716807)" gradientUnits="userSpaceOnUse" xlink:href="#linearGradient4140"/><linearGradient id="linearGradient4830"><stop id="stop4831" offset="0" stop-color="#000" stop-opacity="1"/><stop id="stop4832" offset="1" stop-color="#000" stop-opacity="0"/></linearGradient><linearGradient id="linearGradient4842" x1="24.699" x2="62.643" y1="20.797" y2="53.926" gradientTransform="scale(0.960291,1.041351)" gradientUnits="userSpaceOnUse" xlink:href="#linearGradient4830"/><linearGradient id="linearGradient4731" x1="40.586" x2="46.952" y1="33.98" y2="37.407" gradientTransform="scale(0.960882,1.040710)" gradientUnits="userSpaceOnUse" xlink:href="#linearGradient4728"/><radialGradient id="radialGradient1712" cx="41.217" cy="36.044" r="26.079" fx="42.015" fy="36.314" gradientUnits="userSpaceOnUse" xlink:href="#linearGradient1709"/><radialGradient id="radialGradient1718" cx="41.217" cy="36.044" r="26.079" fx="42.015" fy="36.314" gradientUnits="userSpaceOnUse" xlink:href="#linearGradient1709"/><linearGradient id="linearGradient1719" x1="24.699" x2="62.643" y1="20.797" y2="53.926" gradientTransform="scale(0.960291,1.041351)" gradientUnits="userSpaceOnUse" xlink:href="#linearGradient4830"/><linearGradient id="linearGradient1720" x1="33.714" x2="33.771" y1="32.828" y2="45.819" gradientTransform="scale(1.395076,0.716807)" gradientUnits="userSpaceOnUse" xlink:href="#linearGradient4140"/><linearGradient id="linearGradient1721" x1="33.831" x2="33.831" y1="32.141" y2="47.053" gradientTransform="scale(1.395076,0.716807)" gradientUnits="userSpaceOnUse" xlink:href="#linearGradient4140"/><linearGradient id="linearGradient1722" x1="40.586" x2="46.952" y1="33.98" y2="37.407" gradientTransform="scale(0.960882,1.040710)" gradientUnits="userSpaceOnUse" xlink:href="#linearGradient4728"/></defs><g id="layer1"><g id="g1713" transform="matrix(3.278788,0.000000,0.000000,3.278788,-9.760310,-5.696974)"><path id="path3504" fill="url(#radialGradient1718)" fill-opacity="1" fill-rule="evenodd" stroke="#000079" stroke-linejoin="round" stroke-miterlimit="4" stroke-opacity="1" stroke-width="0" d="M 60.104076 39.286118 A 17.290970 17.290970 0 1 1 25.522137,39.286118 A 17.290970 17.290970 0 1 1 60.104076 39.286118 z" display="block" transform="matrix(1.767188,0.000000,0.000000,1.767188,-38.62515,-30.78355)"/><path id="path4829" fill="url(#linearGradient1719)" fill-opacity="1" fill-rule="evenodd" stroke="#ff8600" stroke-linecap="butt" stroke-linejoin="miter" stroke-miterlimit="4" stroke-opacity="1" stroke-width="0" d="M 49.889882,20.489922 L 34.070171,36.606485 L 42.597500,36.904246 L 29.067505,50.350314 L 34.798186,50.457235 L 25.302585,60.947415 L 48.246702,48.151650 L 39.705905,48.241710 L 56.994214,34.436959 L 47.642600,34.413959 L 63.007583,20.059689 L 49.889882,20.489922 z" display="block" opacity=".789" transform="matrix(1.767188,0.000000,0.000000,1.767188,-36.23224,-30.20553)"/><path id="path4764" fill="url(#linearGradient1720)" fill-opacity="1" fill-rule="evenodd" stroke="url(#linearGradient1721)" stroke-dashoffset="0" stroke-linecap="round" stroke-linejoin="round" stroke-miterlimit="4" stroke-opacity="1" stroke-width="0" marker-start="none" d="M 57.231457 28.348059 A 9.9989319 5.1375728 0 1 1 37.233593,28.348059 A 9.9989319 5.1375728 0 1 1 57.231457 28.348059 z" display="block" opacity=".845" transform="matrix(1.767188,0.000000,0.000000,1.767188,-46.21685,-31.51325)"/><path id="path4828" fill="url(#linearGradient1722)" fill-opacity="1" fill-rule="evenodd" stroke="#ff8600" stroke-linecap="butt" stroke-linejoin="miter" stroke-opacity="1" stroke-width=".646" d="M 49.079714,19.239922 L 33.260003,35.356485 L 41.787332,35.654246 L 28.257337,49.100314 L 33.988018,49.207235 L 24.492417,59.697415 L 47.436534,46.901650 L 38.895737,46.991710 L 56.184046,33.186959 L 46.832432,33.163959 L 62.197415,18.809689 L 49.079714,19.239922 z" display="block" transform="matrix(1.767188,0.000000,0.000000,1.767188,-36.23224,-30.20553)"/></g></g></svg>